G04 Layer_Physical_Order=3*
G04 Layer_Color=16711680*
%FSLAX44Y44*%
%MOMM*%
G71*
G01*
G75*
%ADD10R,4.0000X2.0000*%
%ADD11R,2.0000X4.0000*%
%ADD12C,1.2000*%
%ADD13C,1.6000*%
D10*
X722250Y837500D02*
D03*
Y862500D02*
D03*
Y887500D02*
D03*
Y912500D02*
D03*
X1118250Y841500D02*
D03*
Y866500D02*
D03*
Y891500D02*
D03*
Y916500D02*
D03*
D11*
X882750Y764500D02*
D03*
X907750D02*
D03*
X932750D02*
D03*
X957750D02*
D03*
X956000Y980000D02*
D03*
X931000D02*
D03*
X906000D02*
D03*
X881000D02*
D03*
D12*
X843750Y816000D02*
X844750Y817000D01*
X970250D01*
X944250Y860000D02*
X950750Y866500D01*
X1104500D01*
X1112750Y888250D02*
X1109250Y891750D01*
X930250D01*
X926250Y887750D01*
X724500D01*
X722250Y890000D01*
X728750Y913500D02*
X907750D01*
X916750Y922500D01*
X1005000D01*
X970750Y943000D02*
X869250Y942500D01*
X813750Y840750D02*
X1112750D01*
X944250Y860000D02*
X722250D01*
D13*
X843750Y816000D02*
D03*
X813750Y840750D02*
D03*
X869250Y942500D02*
D03*
X970750Y943000D02*
D03*
X1005000Y922500D02*
D03*
X970250Y817000D02*
D03*
M02*
